<?xml version="1.0" standalone="no"?>
<!DOCTYPE svg PUBLIC "-//W3C//DTD SVG 20010904//EN"
 "http://www.w3.org/TR/2001/REC-SVG-20010904/DTD/svg10.dtd">
<svg version="1.0" xmlns="http://www.w3.org/2000/svg"
 width="700.000000pt" height="700.000000pt" viewBox="0 0 700.000000 700.000000"
 preserveAspectRatio="xMidYMid meet">
<metadata>
Created by potrace 1.14, written by Peter Selinger 2001-2017
</metadata>
<g transform="translate(0.000000,700.000000) scale(0.100000,-0.100000)"
fill="#000000" stroke="none">
<path d="M0 3500 l0 -3500 3500 0 3500 0 0 3500 0 3500 -3500 0 -3500 0 0
-3500z m1925 2092 c95 -44 144 -114 153 -218 6 -83 -17 -150 -70 -203 -23 -22
-50 -43 -60 -47 -27 -8 -22 -22 11 -29 89 -19 160 -122 169 -244 9 -129 -41
-227 -147 -284 -88 -49 -156 -57 -478 -57 l-293 0 0 556 0 555 333 -3 c322 -3
333 -4 382 -26z m1455 -152 l0 -120 80 0 80 0 0 -70 0 -70 -80 0 -80 0 0 -244
c0 -293 -1 -291 99 -291 l61 1 0 -67 0 -67 -64 -7 c-122 -13 -220 17 -253 78
-16 28 -18 67 -21 315 l-3 282 -65 0 -64 0 0 70 0 70 65 0 65 0 0 120 0 120
90 0 90 0 0 -120z m520 0 l0 -119 78 -3 77 -3 3 -67 3 -68 -81 0 -80 0 0 -248
c0 -240 1 -250 21 -268 16 -14 36 -19 80 -19 l59 1 0 -67 0 -67 -64 -7 c-122
-13 -220 17 -253 78 -16 28 -18 67 -21 315 l-3 282 -65 0 -64 0 0 70 0 70 65
0 65 0 0 120 0 120 90 0 90 0 0 -120z m-1105 -139 c76 -38 137 -101 176 -185
29 -62 50 -175 41 -222 l-4 -24 -296 0 -295 0 6 -45 c18 -130 110 -204 239
-192 71 6 125 38 153 91 l20 36 83 0 c95 0 95 1 44 -93 -108 -202 -431 -240
-604 -70 -150 148 -152 457 -3 622 108 120 293 154 440 82z m1898 1 c136 -64
227 -216 227 -379 l0 -53 -294 0 c-162 0 -297 -4 -300 -9 -9 -14 23 -121 44
-152 50 -69 166 -98 255 -65 44 17 105 77 105 103 0 10 23 13 85 13 97 0 97 0
61 -75 -74 -156 -278 -233 -465 -176 -169 51 -261 193 -261 404 0 210 115 371
297 417 68 17 177 5 246 -28z m825 -53 l3 -87 -43 5 c-94 11 -175 -36 -219
-125 -23 -45 -24 -59 -27 -289 l-4 -243 -89 0 -89 0 2 403 3 402 83 3 82 3 0
-78 c0 -77 0 -78 16 -48 45 87 144 147 234 142 l45 -2 3 -86z m-3518 -1264 l0
-85 -175 0 -175 0 0 -475 0 -475 -95 0 -95 0 -2 473 -3 472 -177 3 -178 2 0
79 c0 43 3 81 7 84 3 4 206 7 450 7 l443 0 0 -85z m290 -123 l5 -204 22 30
c31 41 119 83 191 89 127 12 232 -39 279 -135 l28 -57 0 -315 0 -315 -87 -3
-87 -3 -3 288 c-3 264 -5 291 -23 328 -28 56 -73 78 -148 72 -70 -6 -116 -34
-149 -92 -22 -38 -23 -51 -28 -315 l-5 -275 -87 -3 -88 -3 0 561 0 561 88 -3
87 -3 5 -203z m1231 -111 c30 -11 70 -35 88 -53 65 -63 66 -68 69 -348 2 -157
8 -260 14 -267 6 -7 23 -13 39 -13 29 0 29 -1 29 -59 0 -66 -1 -66 -80 -77
-68 -9 -134 16 -152 57 -7 16 -15 28 -18 27 -3 -2 -34 -18 -70 -35 -154 -78
-327 -66 -421 29 -89 89 -77 266 24 339 50 36 80 45 247 69 74 11 148 25 163
32 81 32 73 137 -13 172 -55 22 -145 20 -197 -3 -40 -19 -73 -61 -73 -96 0
-12 -16 -15 -91 -15 l-92 0 7 43 c18 112 112 193 256 221 60 11 216 -2 271
-23z m924 -6 c66 -32 107 -87 124 -166 6 -29 11 -173 11 -339 l0 -290 -89 0
-90 0 -3 293 c-3 315 -6 334 -60 371 -56 39 -160 31 -214 -16 -68 -60 -68 -64
-74 -368 l-5 -275 -87 -3 -88 -3 0 406 0 405 85 0 85 0 0 -58 0 -58 54 52 c67
66 122 85 223 80 53 -2 86 -10 128 -31z m-3043 -1707 l3 -473 283 -3 282 -2 0
-85 0 -85 -380 0 -380 0 0 560 0 560 95 0 95 0 2 -472z m858 387 l0 -85 -90 0
-90 0 0 78 c0 43 3 82 7 85 3 4 44 7 90 7 l83 0 0 -85z m553 79 l37 -7 0 -67
0 -67 -60 1 c-79 1 -97 -17 -106 -102 l-7 -62 82 0 81 0 0 -65 0 -64 -77 -3
-78 -3 -3 -337 -2 -338 -85 0 -85 0 0 340 0 340 -70 0 -70 0 0 65 0 65 70 0
70 0 0 68 c0 139 48 212 150 233 47 9 107 10 153 3z m644 -320 c135 -66 223
-217 223 -384 l0 -50 -300 0 -301 0 7 -37 c23 -134 123 -215 242 -199 70 9
112 35 145 88 l30 48 78 0 c69 0 79 -2 79 -17 -1 -31 -37 -99 -76 -142 -155
-172 -479 -152 -604 37 -52 79 -73 166 -68 285 3 72 11 118 26 157 43 109 138
202 241 235 75 24 207 14 278 -21z m-1197 -389 l0 -406 -87 3 -88 3 -3 403 -2
402 90 0 90 0 0 -405z"/>
<path d="M1400 5310 l0 -150 185 0 c209 0 249 10 281 72 21 41 21 126 -1 168
-27 53 -60 60 -275 60 l-190 0 0 -150z"/>
<path d="M1408 5014 c-5 -4 -8 -83 -8 -176 l0 -168 202 0 c183 0 206 2 244 20
23 12 50 32 59 46 38 59 34 177 -7 222 -49 52 -69 56 -283 60 -110 2 -203 0
-207 -4z"/>
<path d="M2570 5188 c-19 -5 -50 -21 -69 -35 -35 -27 -81 -112 -81 -150 l0
-23 205 0 205 0 0 28 c-1 38 -32 102 -66 134 -56 52 -120 67 -194 46z"/>
<path d="M4478 5191 c-48 -16 -88 -45 -113 -83 -31 -46 -49 -117 -31 -124 6
-2 99 -3 206 -2 l195 3 -3 30 c-5 49 -45 118 -88 148 -43 30 -119 43 -166 28z"/>
<path d="M3462 3340 c-13 -6 -68 -16 -123 -25 -155 -23 -199 -54 -199 -140 0
-116 220 -143 320 -40 34 35 35 39 38 126 2 49 0 89 -5 88 -4 0 -18 -4 -31 -9z"/>
<path d="M3205 2061 c-63 -29 -99 -78 -119 -163 l-6 -28 210 0 210 0 -6 28
c-12 48 -34 96 -57 120 -56 61 -155 79 -232 43z"/>
</g>
</svg>
