<svg xmlns="http://www.w3.org/2000/svg" viewBox="0 0 999.59 422.46"><defs><style>.cls-1{fill:#fff;}</style></defs><title>logo_white_left</title><g id="Layer_2" data-name="Layer 2"><g id="Layer_1-2" data-name="Layer 1"><path class="cls-1" d="M152.47,165.6h49a3.67,3.67,0,0,1,2.91,1.27,3.48,3.48,0,0,1,.72,3.08L175,415.2a5.92,5.92,0,0,1-1.63,3.09,4.2,4.2,0,0,1-3.09,1.27H120.18a3.63,3.63,0,0,1-2.91-1.27,3.48,3.48,0,0,1-.72-3.09l19.23-155.64c.24-1,.05-1.5-.55-1.63s-1.15.18-1.63.91L103.49,303.1c-1,1.94-1.7,2.9-2.18,2.9-.72,0-1.45-1-2.17-2.9L79.91,258.84c-.49-.73-.91-1.09-1.27-1.09s-.67.49-.91,1.45L58.5,415.2a5.92,5.92,0,0,1-1.63,3.09,4.2,4.2,0,0,1-3.08,1.27H3.72a3.61,3.61,0,0,1-2.9-1.27,3.46,3.46,0,0,1-.73-3.09L30.2,170a5.91,5.91,0,0,1,1.64-3.08,4.2,4.2,0,0,1,3.08-1.27H84.26a5.69,5.69,0,0,1,5.08,2.9l21.4,52.61c.73,1,1.46,1,2.18,0L147,168.5C148,166.57,149.8,165.6,152.47,165.6Z"/><path class="cls-1" d="M208,418.29a3.46,3.46,0,0,1-.73-3.09L237.36,170a5.82,5.82,0,0,1,1.63-3.08,4.2,4.2,0,0,1,3.08-1.27h50.07a3.65,3.65,0,0,1,2.9,1.27,3.48,3.48,0,0,1,.73,3.08L265.65,415.2a5.85,5.85,0,0,1-1.63,3.09,4.2,4.2,0,0,1-3.08,1.27H210.87A3.61,3.61,0,0,1,208,418.29Z"/><path class="cls-1" d="M390.09,415.93l-12-96.14a1.72,1.72,0,0,0-1.81-1.45h-5.08c-1,0-1.7.6-2.18,1.81L357.44,415.2a5.92,5.92,0,0,1-1.63,3.09,4.2,4.2,0,0,1-3.09,1.27H302.66a3.59,3.59,0,0,1-2.9-1.27,3.46,3.46,0,0,1-.73-3.09L329.14,170a5.89,5.89,0,0,1,1.63-3.08,4.24,4.24,0,0,1,3.09-1.27h75.82q27.94,0,44.08,17.78t16.15,47.52a94.63,94.63,0,0,1-.73,13.43,96.48,96.48,0,0,1-11.79,36.46A78.38,78.38,0,0,1,434,306.73a2.68,2.68,0,0,0-1.09.9,1.21,1.21,0,0,0,0,1.27L450,414.48v.72q0,4.37-4,4.36H394.45Q390.44,419.56,390.09,415.93Zm-8.7-197-6.17,51.52c0,1.21.48,1.81,1.45,1.81h9.79q10.89,0,17.78-8.89t6.89-24.49q0-10.51-4.71-16.14t-13.06-5.62h-9.8C382.59,217.12,381.87,217.72,381.39,218.93Z"/><path class="cls-1" d="M580.2,415.57,579.47,384a.94.94,0,0,0-.36-1.27,2.44,2.44,0,0,0-1.45-.54h-38.1c-1.45,0-2.17.61-2.17,1.81l-8,31.57a4.84,4.84,0,0,1-5.08,4H474.26q-4.35,0-2.9-4.72l80.9-245.25a4.85,4.85,0,0,1,5.08-4h57.32c2.9,0,4.36,1.33,4.36,4l20.31,245.25v1.09q0,3.63-4,3.63H584.19C581.52,419.56,580.2,418.23,580.2,415.57Zm-27.94-79.82h23.58a1.6,1.6,0,0,0,1.82-1.81l-2.54-82.72c0-1-.25-1.45-.73-1.45s-1,.49-1.45,1.45l-21.77,82.72C551.17,335.15,551.53,335.75,552.26,335.75Z"/><path class="cls-1" d="M680.51,406.32q-17.61-16.14-17.6-44.08,0-3.27.73-11.25l14.51-117.18q3.63-32.66,26.12-51.88t55.87-19.23q30.48,0,48.25,16.32t17.78,44.26q0,3.27-.72,11.25L823.63,248A5.85,5.85,0,0,1,822,251a4.2,4.2,0,0,1-3.08,1.27H768.85A3.61,3.61,0,0,1,766,251a3.46,3.46,0,0,1-.73-3.09L767,233.81l.36-3.63q0-7.26-3.63-11.61a12.09,12.09,0,0,0-9.79-4.36,14.77,14.77,0,0,0-11.61,5.45q-4.73,5.43-5.81,14.15L722.05,351.35l-.36,4q0,7.26,3.62,11.43a11.93,11.93,0,0,0,9.44,4.17,15.32,15.32,0,0,0,11.79-5.44q4.89-5.44,6-14.15l2.91-23.22c.48-1.2,0-1.81-1.45-1.81h-9.07a3.63,3.63,0,0,1-2.91-1.27,3.45,3.45,0,0,1-.72-3.09L746,283.51a4,4,0,0,1,1.46-3.09,4.82,4.82,0,0,1,3.26-1.26h64.94a3.63,3.63,0,0,1,2.9,1.26,3.47,3.47,0,0,1,.73,3.09L810.93,351q-3.63,32.65-26.3,52.06t-56,19.41Q698.1,422.46,680.51,406.32Z"/><path class="cls-1" d="M992.52,215.85a4.22,4.22,0,0,1-3.09,1.27H918.69c-1,0-1.7.6-2.18,1.81l-5.44,45.71c0,1.22.48,1.82,1.45,1.82h38.82a3.63,3.63,0,0,1,2.9,1.27,3.47,3.47,0,0,1,.73,3.08L949.52,314a3.94,3.94,0,0,1-1.45,3.09,4.82,4.82,0,0,1-3.26,1.27H906.35c-1,0-1.69.6-2.18,1.81l-5.44,46.08c-.49,1.21,0,1.81,1.45,1.81h70.75a3.65,3.65,0,0,1,2.9,1.27,3.48,3.48,0,0,1,.73,3.08l-5.08,42.81a5.46,5.46,0,0,1-1.82,3.09,4.8,4.8,0,0,1-3.26,1.27H837.78a3.61,3.61,0,0,1-2.9-1.27,3.46,3.46,0,0,1-.73-3.09L864.27,170a5.82,5.82,0,0,1,1.63-3.08A4.2,4.2,0,0,1,869,165.6H995.6q4,0,4,4.35l-5.44,42.81A6,6,0,0,1,992.52,215.85Z"/><path class="cls-1" d="M59.55,48.84,46.23,62.52V84H30.63V0h15.6V43.08L87.75,0h17.52L70,37.56,107.43,84H89.19Z"/><path class="cls-1" d="M187,64.56H145L136.71,84H120.63l37.8-84h15.36l37.92,84H195.39Zm-5.16-12.24L166,15.6,150.27,52.32Z"/><path class="cls-1" d="M271.59,54.36V84H256V54.6L223,0h16.68l24.6,40.92L289.11,0h15.36Z"/><path class="cls-1" d="M382.11,64.56h-42L331.83,84H315.75l37.8-84h15.36l37.92,84H390.51ZM377,52.32,361.11,15.6,345.39,52.32Z"/><path class="cls-1" d="M464.43,48.84,451.11,62.52V84h-15.6V0h15.6V43.08L492.63,0h17.52L474.87,37.56,512.31,84H494.07Z"/><path class="cls-1" d="M668.91,0l-36.6,84H617L580.23,0h16.91l28,64.8L653.31,0Z"/><path class="cls-1" d="M750.74,84,733.58,59.4a32,32,0,0,1-3.24.12h-19V84h-15.6V0h34.56a46.5,46.5,0,0,1,19,3.6,27.66,27.66,0,0,1,12.42,10.32,28.87,28.87,0,0,1,4.32,16,28.46,28.46,0,0,1-4.62,16.32,27.49,27.49,0,0,1-13.26,10.2L767.54,84ZM745.1,17.52q-5.28-4.32-15.48-4.32H711.38V46.68h18.24q10.2,0,15.48-4.38t5.28-12.42Q750.38,21.84,745.1,17.52Z"/></g></g></svg>