<svg xmlns="http://www.w3.org/2000/svg" viewBox="0 0 500 500"><defs><style>.cls-1{fill:#fff;}</style></defs><title>btl_square</title><g id="Layer_2" data-name="Layer 2"><g id="Layer_1-2" data-name="Layer 1"><rect width="500" height="500"/><path class="cls-1" d="M71.18,77.45h34.48q9.54,0,15.31,4.37T126.73,95a15.84,15.84,0,0,1-2.63,9.19,16.93,16.93,0,0,1-7.51,5.91v.2a15.51,15.51,0,0,1,9.94,6.21,22.42,22.42,0,0,1,1.89,19.88,16,16,0,0,1-4.67,6.26,23.75,23.75,0,0,1-8.15,4.17,40,40,0,0,1-11.83,1.54H71.18ZM83.6,107.16h20.27a11.11,11.11,0,0,0,7.46-2.53,9.09,9.09,0,0,0,3-7.31q0-5.35-2.69-7.55c-1.78-1.45-4.37-2.18-7.75-2.18H83.6Zm0,31.1h22c3.78,0,6.71-1,8.8-2.93s3.13-4.72,3.13-8.3-1-6.21-3.13-8.09-5-2.84-8.8-2.84h-22Z"/><path class="cls-1" d="M148.39,125.64a19.56,19.56,0,0,0,.85,5.77,14.2,14.2,0,0,0,2.53,4.87A12.07,12.07,0,0,0,156,139.6a14.07,14.07,0,0,0,6.16,1.25,13.57,13.57,0,0,0,8-2.14,12.59,12.59,0,0,0,4.52-6.41h10.73a21.36,21.36,0,0,1-8.34,13,22.8,22.8,0,0,1-6.91,3.38,27.83,27.83,0,0,1-8,1.14,27.09,27.09,0,0,1-10.73-2,22.18,22.18,0,0,1-7.9-5.56,23.76,23.76,0,0,1-4.87-8.55,34.77,34.77,0,0,1-1.64-10.93,30.9,30.9,0,0,1,1.74-10.38,26.73,26.73,0,0,1,5-8.65,23.33,23.33,0,0,1,18.13-8.1,23.08,23.08,0,0,1,10.89,2.54,23.8,23.8,0,0,1,8,6.71,27.09,27.09,0,0,1,4.62,9.58,29.5,29.5,0,0,1,.75,11.18Zm26.43-7.45a18.19,18.19,0,0,0-1.14-5.17,13.94,13.94,0,0,0-2.58-4.32,12.92,12.92,0,0,0-4-3,11.76,11.76,0,0,0-5.22-1.14,13.7,13.7,0,0,0-5.41,1,12.35,12.35,0,0,0-4.17,2.88,14.39,14.39,0,0,0-2.79,4.33,15.23,15.23,0,0,0-1.14,5.36Z"/><path class="cls-1" d="M189.63,97h8.54V81.62H209.5V97h10.24v8.44H209.5V132.9a27.19,27.19,0,0,0,.15,3.08,5.19,5.19,0,0,0,.7,2.18,3.31,3.31,0,0,0,1.64,1.35,8.22,8.22,0,0,0,3,.44c.79,0,1.59,0,2.38,0a12.29,12.29,0,0,0,2.39-.34v8.74c-1.26.13-2.49.26-3.68.4a33.91,33.91,0,0,1-3.68.2,25.13,25.13,0,0,1-7.2-.85,9.57,9.57,0,0,1-4.27-2.48,8.55,8.55,0,0,1-2.09-4.13,30.73,30.73,0,0,1-.65-5.66V105.47h-8.54Z"/><path class="cls-1" d="M222.72,97h8.54V81.62h11.33V97h10.23v8.44H242.59V132.9a27.19,27.19,0,0,0,.15,3.08,5.34,5.34,0,0,0,.69,2.18,3.35,3.35,0,0,0,1.64,1.35,8.31,8.31,0,0,0,3,.44c.79,0,1.59,0,2.38,0a12.09,12.09,0,0,0,2.38-.34v8.74c-1.25.13-2.48.26-3.67.4a33.91,33.91,0,0,1-3.68.2,25.13,25.13,0,0,1-7.2-.85,9.67,9.67,0,0,1-4.28-2.48,8.62,8.62,0,0,1-2.08-4.13,30.73,30.73,0,0,1-.65-5.66V105.47h-8.54Z"/><path class="cls-1" d="M269.82,125.64a19.89,19.89,0,0,0,.84,5.77,14.38,14.38,0,0,0,2.53,4.87,12.1,12.1,0,0,0,4.28,3.32,14,14,0,0,0,6.16,1.25,13.57,13.57,0,0,0,8-2.14,12.64,12.64,0,0,0,4.52-6.41h10.73a21.32,21.32,0,0,1-8.35,13,22.64,22.64,0,0,1-6.9,3.38,27.88,27.88,0,0,1-8,1.14,27.09,27.09,0,0,1-10.73-2,22.09,22.09,0,0,1-7.9-5.56,23.47,23.47,0,0,1-4.87-8.55,34.48,34.48,0,0,1-1.64-10.93,30.9,30.9,0,0,1,1.74-10.38,26.55,26.55,0,0,1,5-8.65,23.33,23.33,0,0,1,18.13-8.1,23,23,0,0,1,10.88,2.54,23.84,23.84,0,0,1,8,6.71,27.09,27.09,0,0,1,4.62,9.58,29.5,29.5,0,0,1,.75,11.18Zm26.43-7.45a18.9,18.9,0,0,0-1.14-5.17,14.16,14.16,0,0,0-2.59-4.32,12.87,12.87,0,0,0-4-3,11.76,11.76,0,0,0-5.22-1.14,13.75,13.75,0,0,0-5.42,1,12.55,12.55,0,0,0-4.17,2.88,14.17,14.17,0,0,0-2.78,4.33,14.8,14.8,0,0,0-1.14,5.36Z"/><path class="cls-1" d="M316.22,97h10.63V107h.2a11.41,11.41,0,0,1,1.94-4.07,18.61,18.61,0,0,1,3.48-3.63A17.38,17.38,0,0,1,337,96.63a13.55,13.55,0,0,1,5.07-1,26.27,26.27,0,0,1,2.73.1l1.54.2v10.93c-.8-.13-1.61-.25-2.44-.34a20.06,20.06,0,0,0-2.43-.15,13,13,0,0,0-5.41,1.14,12.46,12.46,0,0,0-4.43,3.38,16.58,16.58,0,0,0-3,5.51,23.88,23.88,0,0,0-1.09,7.55V148.4H316.22Z"/><path class="cls-1" d="M64.42,176.82h57.44v10.73H99.3v60.22H86.88V187.55H64.42Z"/><path class="cls-1" d="M128.52,176.82h11.32v26.33h.2a16.42,16.42,0,0,1,6.21-5.81,18.31,18.31,0,0,1,9.19-2.34q8.44,0,13.32,4.37t4.87,13.12v35.28H162.3v-32.3q-.2-6.06-2.58-8.79T152.26,204a12.2,12.2,0,0,0-5.16,1,11.16,11.16,0,0,0-3.88,2.88,13.52,13.52,0,0,0-2.48,4.32,15.4,15.4,0,0,0-.9,5.27v30.31H128.52Z"/><path class="cls-1" d="M228.58,236.34a6.08,6.08,0,0,0,.54,3,2.31,2.31,0,0,0,2.14.89h1.19A7.43,7.43,0,0,0,234,240v7.85c-.39.13-.91.28-1.54.44s-1.27.32-1.93.45-1.33.23-2,.3-1.23.1-1.69.1a11,11,0,0,1-5.76-1.39,6.94,6.94,0,0,1-3-4.87,20.12,20.12,0,0,1-8.29,4.77,32.84,32.84,0,0,1-9.49,1.49,23.26,23.26,0,0,1-6.66-.95,17.34,17.34,0,0,1-5.61-2.78,13.2,13.2,0,0,1-3.88-4.67,14.4,14.4,0,0,1-1.44-6.61,15.26,15.26,0,0,1,1.74-7.75,13,13,0,0,1,4.57-4.67,20.66,20.66,0,0,1,6.36-2.43q3.52-.75,7.1-1.15c2.06-.39,4-.67,5.87-.84a27.89,27.89,0,0,0,4.92-.84,7.54,7.54,0,0,0,3.37-1.84A5.06,5.06,0,0,0,218,210.9a5.79,5.79,0,0,0-1-3.58,6.91,6.91,0,0,0-2.58-2.13,11.23,11.23,0,0,0-3.43-1,28.43,28.43,0,0,0-3.58-.24,14.28,14.28,0,0,0-7.85,2,7.75,7.75,0,0,0-3.47,6.16H184.66a17,17,0,0,1,2.38-8.24,16.53,16.53,0,0,1,5.32-5.27,21.86,21.86,0,0,1,7.3-2.78A43.53,43.53,0,0,1,208,195a35.12,35.12,0,0,1,7.45.8,21.3,21.3,0,0,1,6.61,2.58,14.28,14.28,0,0,1,4.72,4.62,12.71,12.71,0,0,1,1.79,6.91ZM217.25,222a13.67,13.67,0,0,1-6.36,2c-2.52.23-5,.58-7.55,1a23.88,23.88,0,0,0-3.48.85,10.28,10.28,0,0,0-3,1.49,6.56,6.56,0,0,0-2,2.48,8.61,8.61,0,0,0-.74,3.73,4.74,4.74,0,0,0,1.09,3.18,7.91,7.91,0,0,0,2.63,2,12.24,12.24,0,0,0,3.38,1,20.84,20.84,0,0,0,3.33.29,18.55,18.55,0,0,0,4.08-.49,13.68,13.68,0,0,0,4.12-1.69,11,11,0,0,0,3.23-3,7.68,7.68,0,0,0,1.29-4.52Z"/><path class="cls-1" d="M240.8,196.39h10.73V204l.2.19a19,19,0,0,1,6.76-6.7,17.93,17.93,0,0,1,9.24-2.44q8.44,0,13.31,4.37t4.87,13.12v35.28H274.59v-32.3q-.21-6.06-2.59-8.79T264.55,204a12.28,12.28,0,0,0-5.17,1,11.22,11.22,0,0,0-3.87,2.88,13.73,13.73,0,0,0-2.49,4.32,15.64,15.64,0,0,0-.89,5.27v30.31H240.8Z"/><path class="cls-1" d="M71.18,276.19H83.6V336.4h36.07v10.73H71.18Z"/><path class="cls-1" d="M126.93,276.19h11.32v10.73H126.93Zm0,19.57h11.32v51.37H126.93Z"/><path class="cls-1" d="M145.51,295.76H154v-4.27a21.77,21.77,0,0,1,1.2-7.9,11.11,11.11,0,0,1,3.18-4.67,10.43,10.43,0,0,1,4.52-2.19,25.43,25.43,0,0,1,5.31-.54,32.62,32.62,0,0,1,8,.69v8.85a16,16,0,0,0-2.33-.45,24.9,24.9,0,0,0-2.93-.15,6.9,6.9,0,0,0-3.93,1.09c-1.09.73-1.64,2.16-1.64,4.27v5.27h9.64v8.45h-9.64v42.92H154V304.21h-8.44Z"/><path class="cls-1" d="M190.72,324.38a19.77,19.77,0,0,0,.84,5.76A14.21,14.21,0,0,0,194.1,335a12.21,12.21,0,0,0,4.27,3.33,14.07,14.07,0,0,0,6.16,1.24,13.64,13.64,0,0,0,8-2.13,12.63,12.63,0,0,0,4.52-6.41h10.73a21.3,21.3,0,0,1-8.34,13,22.8,22.8,0,0,1-6.91,3.38,27.88,27.88,0,0,1-8,1.14,27.27,27.27,0,0,1-10.73-2,22.11,22.11,0,0,1-7.9-5.57,23.57,23.57,0,0,1-4.87-8.54,34.81,34.81,0,0,1-1.64-10.93,30.92,30.92,0,0,1,1.74-10.39,26.57,26.57,0,0,1,5-8.64,23.33,23.33,0,0,1,18.13-8.1,23,23,0,0,1,10.88,2.53,23.85,23.85,0,0,1,8,6.71,27.13,27.13,0,0,1,4.62,9.59,29.49,29.49,0,0,1,.75,11.18Zm26.43-7.45a18.19,18.19,0,0,0-1.14-5.17,13.55,13.55,0,0,0-2.59-4.32,12.6,12.6,0,0,0-4-3,11.63,11.63,0,0,0-5.22-1.15,13.52,13.52,0,0,0-5.41,1.05,12.21,12.21,0,0,0-4.18,2.88,14.31,14.31,0,0,0-2.78,4.32,15.11,15.11,0,0,0-1.14,5.37Z"/><path class="cls-1" d="M74.79,392.14v33.57H70.32V392.14Z"/><path class="cls-1" d="M85.41,401.4V405h.09a9.47,9.47,0,0,1,11.94-3.2A5.24,5.24,0,0,1,100,405a8.44,8.44,0,0,1,3.22-3.06,9.06,9.06,0,0,1,4.39-1.08,12.64,12.64,0,0,1,3.32.4,7,7,0,0,1,2.54,1.25,5.64,5.64,0,0,1,1.64,2.18,8,8,0,0,1,.59,3.22v17.82h-4V409.77a10.82,10.82,0,0,0-.19-2.11,4.34,4.34,0,0,0-.7-1.72,3.58,3.58,0,0,0-1.43-1.15,5.8,5.8,0,0,0-2.38-.42,6.28,6.28,0,0,0-4.65,1.69,6.09,6.09,0,0,0-1.69,4.51v15.14h-4V409.77a10.41,10.41,0,0,0-.21-2.16,4.53,4.53,0,0,0-.73-1.72,3.36,3.36,0,0,0-1.39-1.12,5.3,5.3,0,0,0-2.23-.4,5.94,5.94,0,0,0-3,.7A6.76,6.76,0,0,0,86,408.81a5.65,5.65,0,0,0-.36,1.76v15.14h-4V401.4Z"/><path class="cls-1" d="M125.5,401.4V405h.1a9.47,9.47,0,0,1,11.94-3.2,5.26,5.26,0,0,1,2.58,3.2,8.51,8.51,0,0,1,3.22-3.06,9.1,9.1,0,0,1,4.4-1.08,12.51,12.51,0,0,1,3.31.4,6.79,6.79,0,0,1,2.54,1.25,5.66,5.66,0,0,1,1.65,2.18,8,8,0,0,1,.58,3.22v17.82h-4V409.77a11.66,11.66,0,0,0-.19-2.11,4.35,4.35,0,0,0-.71-1.72,3.51,3.51,0,0,0-1.43-1.15,5.72,5.72,0,0,0-2.37-.42,6.29,6.29,0,0,0-4.66,1.69,6.13,6.13,0,0,0-1.69,4.51v15.14h-4V409.77a9.75,9.75,0,0,0-.22-2.16,4.68,4.68,0,0,0-.72-1.72,3.42,3.42,0,0,0-1.39-1.12,5.33,5.33,0,0,0-2.23-.4,6,6,0,0,0-3,.7,6.76,6.76,0,0,0-3.15,3.74,5.9,5.9,0,0,0-.35,1.76v15.14h-4V401.4Z"/><path class="cls-1" d="M179,424.16a11.05,11.05,0,0,1-6.86,2.06,12.4,12.4,0,0,1-5.05-.94,9.83,9.83,0,0,1-3.6-2.63,11.09,11.09,0,0,1-2.18-4,19.67,19.67,0,0,1-.83-5.13,14.69,14.69,0,0,1,.85-5.07,12,12,0,0,1,2.37-4,10.85,10.85,0,0,1,3.62-2.63,11,11,0,0,1,4.59-.94,10,10,0,0,1,5.38,1.34,10.64,10.64,0,0,1,3.43,3.41,13.53,13.53,0,0,1,1.79,4.51,20,20,0,0,1,.4,4.65h-18.2a9.8,9.8,0,0,0,.38,3,6.89,6.89,0,0,0,1.36,2.53,6.77,6.77,0,0,0,2.4,1.77,8.26,8.26,0,0,0,3.43.66,6.94,6.94,0,0,0,4.16-1.18,5.65,5.65,0,0,0,2.14-3.57h3.95A9.72,9.72,0,0,1,179,424.16Zm-1-15.61a6.73,6.73,0,0,0-3.62-3.64,6.85,6.85,0,0,0-2.75-.54,7,7,0,0,0-2.8.54,6.32,6.32,0,0,0-2.13,1.48,7,7,0,0,0-1.42,2.18,8.68,8.68,0,0,0-.61,2.66h14A8.14,8.14,0,0,0,178.08,408.55Z"/><path class="cls-1" d="M190.7,401.4v5.13h.09a10.86,10.86,0,0,1,3.58-4.37,9,9,0,0,1,5.36-1.32v4.23a11.24,11.24,0,0,0-4.09.66,6.43,6.43,0,0,0-2.73,1.93,7.85,7.85,0,0,0-1.5,3.08,16.23,16.23,0,0,0-.47,4.15v10.82h-4V401.4Z"/><path class="cls-1" d="M205.79,420.28a4.19,4.19,0,0,0,1.48,1.45,6.49,6.49,0,0,0,2.07.78,11.55,11.55,0,0,0,2.37.24,13.82,13.82,0,0,0,2-.15,7.18,7.18,0,0,0,1.9-.51A3.49,3.49,0,0,0,217,421a2.9,2.9,0,0,0,.57-1.85,2.66,2.66,0,0,0-1.18-2.35,9.76,9.76,0,0,0-2.94-1.3c-1.17-.33-2.45-.62-3.83-.89a19.9,19.9,0,0,1-3.83-1.13,8,8,0,0,1-2.94-2,5.34,5.34,0,0,1-1.17-3.67,5.82,5.82,0,0,1,.82-3.15,6.67,6.67,0,0,1,2.12-2.14,9.73,9.73,0,0,1,2.91-1.22,13.27,13.27,0,0,1,3.22-.4,19.6,19.6,0,0,1,3.81.35,9,9,0,0,1,3.08,1.23,6.39,6.39,0,0,1,2.14,2.35,9,9,0,0,1,.94,3.69h-4a4,4,0,0,0-.61-1.95,3.94,3.94,0,0,0-1.32-1.25,6,6,0,0,0-1.76-.68,9.1,9.1,0,0,0-2-.21,11.12,11.12,0,0,0-1.81.14,6.13,6.13,0,0,0-1.67.49,3.41,3.41,0,0,0-1.22.94,2.39,2.39,0,0,0-.47,1.53,2.22,2.22,0,0,0,.73,1.71,5.52,5.52,0,0,0,1.85,1.13,15.92,15.92,0,0,0,2.54.75l2.82.64a30.18,30.18,0,0,1,2.94.8,9.68,9.68,0,0,1,2.54,1.24,6.18,6.18,0,0,1,1.79,1.95,5.81,5.81,0,0,1,.68,2.92,6.76,6.76,0,0,1-.92,3.66,7.13,7.13,0,0,1-2.4,2.36,10,10,0,0,1-3.33,1.24,19.36,19.36,0,0,1-3.69.35,17.23,17.23,0,0,1-3.86-.42,9.28,9.28,0,0,1-3.24-1.39,7.09,7.09,0,0,1-2.26-2.53,8.83,8.83,0,0,1-.94-3.84h4A4.46,4.46,0,0,0,205.79,420.28Z"/><path class="cls-1" d="M226.47,397v-4.89h4V397Zm4,4.37v24.31h-4V401.4Z"/><path class="cls-1" d="M243.34,425.71l-9-24.31h4.47l6.81,20.26h.1l6.62-20.26h4.19l-8.89,24.31Z"/><path class="cls-1" d="M277.38,424.16a11.1,11.1,0,0,1-6.87,2.06,12.44,12.44,0,0,1-5.05-.94,9.79,9.79,0,0,1-3.59-2.63,11.1,11.1,0,0,1-2.19-4,19.26,19.26,0,0,1-.82-5.13,14.7,14.7,0,0,1,.84-5.07,12.22,12.22,0,0,1,2.38-4,10.65,10.65,0,0,1,3.62-2.63,11,11,0,0,1,4.58-.94,10,10,0,0,1,5.38,1.34,10.55,10.55,0,0,1,3.43,3.41,13.53,13.53,0,0,1,1.79,4.51,19.42,19.42,0,0,1,.4,4.65H263.09a9.8,9.8,0,0,0,.37,3,6.91,6.91,0,0,0,1.37,2.53,6.64,6.64,0,0,0,2.39,1.77,8.31,8.31,0,0,0,3.44.66,7,7,0,0,0,4.16-1.18A5.64,5.64,0,0,0,277,418h3.95A9.75,9.75,0,0,1,277.38,424.16Zm-1-15.61a6.92,6.92,0,0,0-1.45-2.19,7.06,7.06,0,0,0-2.17-1.45,6.82,6.82,0,0,0-2.75-.54,6.94,6.94,0,0,0-2.79.54,6.36,6.36,0,0,0-2.14,1.48,6.82,6.82,0,0,0-1.41,2.18,8.14,8.14,0,0,0-.61,2.66h14A8.41,8.41,0,0,0,276.41,408.55Z"/><path class="cls-1" d="M315.94,396.73a9.46,9.46,0,0,0-5.71-1.62,13.49,13.49,0,0,0-2.77.28,7.32,7.32,0,0,0-2.42.94,4.84,4.84,0,0,0-1.69,1.76,5.38,5.38,0,0,0-.64,2.75,3.54,3.54,0,0,0,.92,2.52,6.81,6.81,0,0,0,2.44,1.57,19.72,19.72,0,0,0,3.46,1c1.28.27,2.59.56,3.92.87s2.64.68,3.93,1.11a12.93,12.93,0,0,1,3.45,1.71,8.13,8.13,0,0,1,2.45,2.73,9.58,9.58,0,0,1-.29,8.72,9.77,9.77,0,0,1-3.07,3.1,13.46,13.46,0,0,1-4.21,1.74,20.45,20.45,0,0,1-4.63.54,19.74,19.74,0,0,1-5.34-.71,13,13,0,0,1-4.41-2.14,10,10,0,0,1-3-3.66,11.76,11.76,0,0,1-1.11-5.29h4.23a7.53,7.53,0,0,0,.83,3.64,7.33,7.33,0,0,0,2.16,2.52,9,9,0,0,0,3.12,1.45,14.11,14.11,0,0,0,3.67.48,16.53,16.53,0,0,0,3-.29,9,9,0,0,0,2.75-1,5.15,5.15,0,0,0,2.73-4.87,4.25,4.25,0,0,0-.92-2.82,6.85,6.85,0,0,0-2.44-1.76,18,18,0,0,0-3.46-1.1l-3.92-.87c-1.34-.3-2.64-.64-3.93-1a14.3,14.3,0,0,1-3.45-1.55,6.91,6.91,0,0,1-3.36-6.32,8.92,8.92,0,0,1,1-4.4,9.15,9.15,0,0,1,2.75-3,12.44,12.44,0,0,1,3.9-1.79,17.34,17.34,0,0,1,4.49-.58,17.93,17.93,0,0,1,4.8.61,10.81,10.81,0,0,1,3.87,1.92,9.38,9.38,0,0,1,2.64,3.32,11.81,11.81,0,0,1,1,4.77h-4.23A7,7,0,0,0,315.94,396.73Z"/><path class="cls-1" d="M339.33,401.4v3.53h-4.84V420a4.89,4.89,0,0,0,.11,1.13,1.19,1.19,0,0,0,.45.66,2.12,2.12,0,0,0,.92.3,12.67,12.67,0,0,0,1.53.07h1.83v3.53h-3.06a13.47,13.47,0,0,1-2.65-.22,3.87,3.87,0,0,1-1.79-.77,3.37,3.37,0,0,1-1-1.6,9.23,9.23,0,0,1-.33-2.73V404.93h-4.13V401.4h4.13v-7.28h4v7.28Z"/><path class="cls-1" d="M360.1,425.71v-3.86H360a8.23,8.23,0,0,1-3.24,3.32,9.8,9.8,0,0,1-4.66,1.05,11,11,0,0,1-4-.63,6.37,6.37,0,0,1-2.59-1.81,6.82,6.82,0,0,1-1.38-2.8,14.83,14.83,0,0,1-.4-3.59v-16h4v16.46a4.82,4.82,0,0,0,1.32,3.57,4.88,4.88,0,0,0,3.62,1.32,8,8,0,0,0,3.17-.57,5.85,5.85,0,0,0,2.23-1.6,6.65,6.65,0,0,0,1.34-2.42,9.73,9.73,0,0,0,.45-3V401.4h4v24.31Z"/><path class="cls-1" d="M387.6,425.71v-3.29h-.09a5.88,5.88,0,0,1-3.1,2.91,11.8,11.8,0,0,1-4.66.89,10.93,10.93,0,0,1-4.91-1,10.2,10.2,0,0,1-3.48-2.77,12.16,12.16,0,0,1-2.09-4.05,16.57,16.57,0,0,1-.7-4.89,16.88,16.88,0,0,1,.68-4.88,11.28,11.28,0,0,1,2.07-4,10,10,0,0,1,3.47-2.73,11.15,11.15,0,0,1,4.87-1,11.35,11.35,0,0,1,2,.19,10.37,10.37,0,0,1,2.16.63,9.38,9.38,0,0,1,2.05,1.18,6.42,6.42,0,0,1,1.62,1.81h.09V392.14h4v33.57Zm-14.36-8.63a8.77,8.77,0,0,0,1.37,2.89,6.58,6.58,0,0,0,2.35,2,7.12,7.12,0,0,0,3.36.76,6.9,6.9,0,0,0,3.43-.8,6.83,6.83,0,0,0,2.3-2.1,8.53,8.53,0,0,0,1.29-2.93,13.94,13.94,0,0,0,.4-3.34,14.19,14.19,0,0,0-.42-3.46,8.46,8.46,0,0,0-1.34-2.93,6.84,6.84,0,0,0-2.37-2.05,7.42,7.42,0,0,0-3.53-.77,6.77,6.77,0,0,0-3.43.8,6.36,6.36,0,0,0-2.26,2.11,9.29,9.29,0,0,0-1.22,3,16.06,16.06,0,0,0-.37,3.48A12.34,12.34,0,0,0,373.24,417.08Z"/><path class="cls-1" d="M398,397v-4.89h4V397Zm4,4.37v24.31h-4V401.4Z"/><path class="cls-1" d="M407.63,408.57a11.4,11.4,0,0,1,2.25-4,10.68,10.68,0,0,1,3.71-2.7,13.58,13.58,0,0,1,10.18,0,10.7,10.7,0,0,1,3.69,2.7,11.42,11.42,0,0,1,2.26,4,16.23,16.23,0,0,1,.75,5,16,16,0,0,1-.75,5,11.34,11.34,0,0,1-2.26,4,10.28,10.28,0,0,1-3.69,2.68,14,14,0,0,1-10.18,0,10.27,10.27,0,0,1-3.71-2.68,11.31,11.31,0,0,1-2.25-4,15.66,15.66,0,0,1-.76-5A15.94,15.94,0,0,1,407.63,408.57Zm4.06,8.93a8.15,8.15,0,0,0,1.62,2.87,7,7,0,0,0,2.42,1.76,7.28,7.28,0,0,0,5.88,0,7,7,0,0,0,2.42-1.76,8.15,8.15,0,0,0,1.62-2.87,13.35,13.35,0,0,0,0-7.85,8.52,8.52,0,0,0-1.62-2.89,7,7,0,0,0-2.42-1.78,7.39,7.39,0,0,0-5.88,0,7,7,0,0,0-2.42,1.78,8.52,8.52,0,0,0-1.62,2.89,13.35,13.35,0,0,0,0,7.85Z"/></g></g></svg>