<?xml version="1.0" encoding="UTF-8" standalone="no"?>
<!DOCTYPE svg PUBLIC "-//W3C//DTD SVG 1.1//EN" "http://www.w3.org/Graphics/SVG/1.1/DTD/svg11.dtd">
<svg width="100%" height="100%" viewBox="0 0 443 85" version="1.1" xmlns="http://www.w3.org/2000/svg" xmlns:xlink="http://www.w3.org/1999/xlink" xml:space="preserve" xmlns:serif="http://www.serif.com/" style="fill-rule:evenodd;clip-rule:evenodd;stroke-linejoin:round;stroke-miterlimit:2;">
    <g id="Layer_2">
        <g id="Layer_3">
            <path d="M108.23,33.5C107.887,33.108 107.485,32.771 107.04,32.5C106.441,32.111 105.809,31.776 105.15,31.5C104.384,31.186 103.595,30.932 102.79,30.74C101.932,30.531 101.053,30.427 100.17,30.43C98.636,30.316 97.104,30.694 95.8,31.51C94.862,32.215 94.327,33.337 94.37,34.51C94.328,35.339 94.616,36.152 95.17,36.77C95.863,37.422 96.709,37.89 97.63,38.13C98.73,38.48 100.1,38.85 101.72,39.24C103.535,39.648 105.304,40.237 107,41C108.343,41.571 109.517,42.477 110.41,43.63C111.259,44.923 111.672,46.455 111.59,48C111.621,49.334 111.326,50.656 110.73,51.85C110.174,52.917 109.359,53.829 108.36,54.5C107.291,55.195 106.11,55.703 104.87,56C103.483,56.341 102.059,56.509 100.63,56.5C99.139,56.497 97.654,56.33 96.2,56C94.757,55.698 93.349,55.246 92,54.65C90.681,54.055 89.433,53.314 88.28,52.44L90.47,48.44C90.927,48.895 91.441,49.288 92,49.61C92.776,50.081 93.584,50.496 94.42,50.85C95.389,51.269 96.393,51.604 97.42,51.85C98.496,52.118 99.601,52.253 100.71,52.25C102.213,52.335 103.708,51.988 105.02,51.25C105.99,50.631 106.559,49.539 106.51,48.39C106.546,47.494 106.179,46.627 105.51,46.03C104.687,45.334 103.731,44.814 102.7,44.5C101.48,44.09 100.02,43.67 98.31,43.25C96.618,42.848 94.973,42.271 93.4,41.53C92.219,41.004 91.203,40.168 90.46,39.11C89.756,37.967 89.408,36.641 89.46,35.3C89.318,31.782 91.457,28.547 94.75,27.3C96.5,26.609 98.369,26.269 100.25,26.3C101.546,26.291 102.839,26.438 104.1,26.74C105.274,27.014 106.414,27.417 107.5,27.94C108.493,28.403 109.43,28.981 110.29,29.66L108.23,33.5Z" style="fill:white;fill-rule:nonzero;"/>
            <path d="M116.25,56.31L116.25,26.49L128.77,26.49C130.052,26.476 131.32,26.764 132.47,27.33C134.703,28.443 136.442,30.352 137.34,32.68C137.78,33.798 138.008,34.988 138.01,36.19C138.015,37.822 137.634,39.432 136.9,40.89C136.179,42.347 135.102,43.599 133.77,44.53C132.37,45.477 130.71,45.967 129.02,45.93L121.02,45.93L121.02,56.31L116.25,56.31ZM121,41.78L128.73,41.78C129.551,41.771 130.347,41.497 131,41C131.694,40.482 132.242,39.793 132.59,39C132.997,38.099 133.198,37.119 133.18,36.13C133.2,35.129 132.97,34.139 132.51,33.25C132.103,32.469 131.505,31.805 130.77,31.32C130.09,30.871 129.294,30.631 128.48,30.63L121,30.63L121,41.78Z" style="fill:white;fill-rule:nonzero;"/>
            <path d="M142.42,56.31L142.42,26.49L155.42,26.49C156.699,26.476 157.963,26.764 159.11,27.33C160.205,27.88 161.186,28.634 162,29.55C162.824,30.471 163.477,31.531 163.93,32.68C164.389,33.793 164.627,34.986 164.63,36.19C164.638,37.491 164.393,38.782 163.91,39.99C163.466,41.148 162.785,42.201 161.91,43.08C161.038,43.954 159.972,44.612 158.8,45L165.8,56.34L160.51,56.34L154.04,45.96L147.16,45.96L147.16,56.31L142.42,56.31ZM147.17,41.78L155.36,41.78C156.196,41.788 157.01,41.513 157.67,41C158.352,40.47 158.897,39.784 159.26,39C159.658,38.131 159.86,37.185 159.85,36.23C159.864,35.25 159.627,34.282 159.16,33.42C158.739,32.627 158.14,31.942 157.41,31.42C156.736,30.94 155.927,30.685 155.1,30.69L147.17,30.69L147.17,41.78Z" style="fill:white;fill-rule:nonzero;"/>
            <rect x="170.18" y="26.49" width="4.75" height="29.82" style="fill:white;fill-rule:nonzero;"/>
            <path d="M186.35,35.22L186.35,56.31L181.61,56.31L181.61,26.49L185.47,26.49L202.35,48L202.35,26.53L207.06,26.53L207.06,56.31L203,56.31L186.35,35.22Z" style="fill:white;fill-rule:nonzero;"/>
            <path d="M226,56.52C224.098,56.532 222.218,56.115 220.5,55.3C218.797,54.508 217.268,53.386 216,52C213.383,49.044 211.956,45.218 212,41.27C211.965,39.307 212.305,37.356 213,35.52C213.704,33.762 214.72,32.146 216,30.75C217.268,29.37 218.798,28.255 220.5,27.47C222.261,26.67 224.176,26.263 226.11,26.28C228.628,26.194 231.122,26.81 233.31,28.06C235.193,29.187 236.716,30.828 237.7,32.79L234.09,35.39C233.359,33.865 232.189,32.594 230.73,31.74C229.289,30.924 227.657,30.503 226,30.52C224.667,30.496 223.349,30.798 222.16,31.4C221.023,31.986 220.027,32.811 219.24,33.82C218.416,34.86 217.783,36.039 217.37,37.3C216.935,38.623 216.716,40.007 216.72,41.4C216.711,42.844 216.951,44.278 217.43,45.64C217.874,46.908 218.553,48.082 219.43,49.1C220.278,50.083 221.319,50.88 222.49,51.44C223.674,52.001 224.97,52.288 226.28,52.28C227.938,52.274 229.566,51.833 231,51C232.611,50.045 234.018,48.78 235.14,47.28L235.14,52.07C232.913,54.843 229.556,56.477 226,56.52ZM234.65,44.72L228.43,44.72L228.43,41.19L238.64,41.19L238.64,56.31L234.64,56.31L234.65,44.72Z" style="fill:white;fill-rule:nonzero;"/>
            <path d="M267.45,48.62C267.488,50.093 267.046,51.54 266.19,52.74C265.341,53.898 264.198,54.81 262.88,55.38C261.424,56.016 259.849,56.333 258.26,56.31L244,56.31L244,26.49L259.37,26.49C260.668,26.457 261.942,26.847 263,27.6C264.019,28.333 264.829,29.318 265.35,30.46C265.892,31.593 266.173,32.834 266.17,34.09C266.171,35.521 265.787,36.927 265.06,38.16C264.341,39.419 263.236,40.415 261.91,41C263.514,41.453 264.922,42.428 265.91,43.77C266.945,45.172 267.487,46.878 267.45,48.62ZM248.76,30.52L248.76,39.38L257.37,39.38C258.113,39.396 258.844,39.191 259.47,38.79C260.088,38.404 260.595,37.862 260.94,37.22C261.316,36.531 261.505,35.755 261.49,34.97C261.507,34.18 261.343,33.397 261.01,32.68C260.7,32.045 260.227,31.503 259.64,31.11C259.047,30.719 258.35,30.513 257.64,30.52L248.76,30.52ZM262.67,47.74C262.675,46.937 262.486,46.145 262.12,45.43C261.782,44.759 261.284,44.182 260.67,43.75C260.047,43.323 259.305,43.103 258.55,43.12L248.76,43.12L248.76,52.28L258.26,52.28C259.056,52.292 259.838,52.062 260.5,51.62C261.144,51.208 261.684,50.654 262.08,50C262.477,49.314 262.681,48.533 262.67,47.74Z" style="fill:white;fill-rule:nonzero;"/>
            <path d="M284.72,56.52C282.743,56.538 280.787,56.107 279,55.26C277.279,54.436 275.744,53.269 274.49,51.83C271.935,48.955 270.512,45.246 270.49,41.4C270.48,39.451 270.85,37.518 271.58,35.71C272.278,33.931 273.295,32.295 274.58,30.88C275.863,29.479 277.405,28.338 279.12,27.52C280.898,26.679 282.844,26.255 284.81,26.28C286.826,26.246 288.821,26.691 290.63,27.58C292.336,28.437 293.855,29.623 295.1,31.07C297.608,33.958 298.993,37.655 299,41.48C299.021,43.409 298.682,45.325 298,47.13C297.323,48.931 296.304,50.585 295,52C293.722,53.397 292.183,54.532 290.47,55.34C288.665,56.156 286.7,56.559 284.72,56.52ZM275.31,41.4C275.301,42.79 275.521,44.171 275.96,45.49C276.369,46.766 277.01,47.956 277.85,49C278.662,50.012 279.686,50.835 280.85,51.41C282.092,52.023 283.465,52.329 284.85,52.3C286.239,52.322 287.613,52.002 288.85,51.37C290.023,50.77 291.048,49.916 291.85,48.87C292.666,47.82 293.292,46.635 293.7,45.37C294.123,44.079 294.335,42.728 294.33,41.37C294.339,39.982 294.112,38.602 293.66,37.29C293.226,36.032 292.572,34.86 291.73,33.83C290.91,32.822 289.888,31.998 288.73,31.41C286.225,30.21 283.305,30.21 280.8,31.41C279.635,32.013 278.612,32.859 277.8,33.89C276.98,34.934 276.354,36.116 275.95,37.38C275.521,38.677 275.305,40.034 275.31,41.4Z" style="fill:white;fill-rule:nonzero;"/>
            <path d="M311.43,26.49L315.88,26.49L327.47,56.31L322.47,56.31L319.6,48.2L307.68,48.2L304.75,56.31L299.75,56.31L311.43,26.49ZM318.35,44.72L313.65,31.65L308.94,44.72L318.35,44.72Z" style="fill:white;fill-rule:nonzero;"/>
            <path d="M331.17,56.31L331.17,26.49L344.17,26.49C345.452,26.475 346.72,26.763 347.87,27.33C348.974,27.879 349.965,28.633 350.79,29.55C351.614,30.471 352.267,31.531 352.72,32.68C353.171,33.795 353.406,34.987 353.41,36.19C353.421,37.491 353.18,38.781 352.7,39.99C352.256,41.148 351.574,42.2 350.7,43.08C349.817,43.96 348.737,44.619 347.55,45L354.55,56.34L349.26,56.34L342.8,45.93L335.91,45.93L335.91,56.31L331.17,56.31ZM335.91,41.78L344.1,41.78C344.936,41.792 345.752,41.516 346.41,41C347.098,40.473 347.647,39.787 348.01,39C348.408,38.131 348.61,37.185 348.6,36.23C348.605,34.33 347.696,32.538 346.16,31.42C345.486,30.94 344.677,30.685 343.85,30.69L335.91,30.69L335.91,41.78Z" style="fill:white;fill-rule:nonzero;"/>
            <path d="M358.93,56.31L358.93,26.49L369.51,26.49C372.328,26.387 375.118,27.08 377.56,28.49C379.659,29.781 381.342,31.649 382.41,33.87C383.518,36.213 384.075,38.779 384.04,41.37C384.107,44.106 383.496,46.817 382.26,49.26C381.117,51.452 379.358,53.263 377.2,54.47C374.841,55.744 372.19,56.381 369.51,56.32L358.93,56.31ZM379.26,41.31C379.298,39.396 378.901,37.498 378.1,35.76C377.368,34.22 376.217,32.917 374.78,32C373.194,31.041 371.363,30.561 369.51,30.62L363.67,30.62L363.67,52.12L369.51,52.12C371.385,52.18 373.237,51.682 374.83,50.69C376.27,49.741 377.411,48.402 378.12,46.83C378.897,45.112 379.286,43.245 379.26,41.36L379.26,41.31Z" style="fill:white;fill-rule:nonzero;"/>
            <path d="M391.31,26.49L402,52.65L412.6,26.49L415.67,26.49L403.32,56.31L400.63,56.31L388.24,26.49L391.31,26.49Z" style="fill:rgb(237,78,54);fill-rule:nonzero;"/>
            <path d="M420,56.31L420,26.49L432.6,26.49C433.822,26.473 435.032,26.743 436.13,27.28C437.192,27.816 438.139,28.553 438.92,29.45C439.707,30.335 440.333,31.35 440.77,32.45C441.2,33.525 441.42,34.672 441.42,35.83C441.425,37.206 441.146,38.567 440.6,39.83C440.084,41.056 439.293,42.147 438.29,43.02C437.294,43.89 436.087,44.484 434.79,44.74L442.1,56.25L438.78,56.25L431.78,45.25L422.96,45.25L422.96,56.25L420,56.31ZM422.94,42.7L432.69,42.7C433.792,42.713 434.868,42.361 435.75,41.7C436.624,41.039 437.313,40.164 437.75,39.16C438.222,38.11 438.464,36.971 438.46,35.82C438.469,34.656 438.187,33.508 437.64,32.48C437.118,31.485 436.359,30.633 435.43,30C434.537,29.373 433.471,29.041 432.38,29.05L422.89,29.05L422.94,42.7Z" style="fill:rgb(237,78,54);fill-rule:nonzero;"/>
            <path d="M4.13,26.18C3.497,26.164 2.989,25.633 3,25L3,23.16C3,22.524 3.524,22 4.16,22C4.796,22 5.32,22.524 5.32,23.16L5.32,25C5.32,25.007 5.32,25.014 5.32,25.02C5.32,25.657 4.797,26.18 4.16,26.18C4.15,26.18 4.14,26.18 4.13,26.18Z" style="fill:rgb(35,31,32);fill-rule:nonzero;"/>
            <path d="M4.13,55C3.509,54.984 3.005,54.471 3,53.85L3,49.73C3,49.094 3.524,48.57 4.16,48.57C4.796,48.57 5.32,49.094 5.32,49.73L5.32,53.85C5.315,54.483 4.793,55 4.16,55C4.15,55 4.14,55 4.13,55ZM4.13,45.38C3.512,45.364 3.01,44.858 3,44.24L3,40.12C3,39.484 3.524,38.96 4.16,38.96C4.796,38.96 5.32,39.484 5.32,40.12L5.32,44.24C5.32,44.877 4.796,45.4 4.16,45.4C4.15,45.4 4.14,45.4 4.13,45.4L4.13,45.38ZM4.13,35.77C3.512,35.754 3.01,35.248 3,34.63L3,30.51C3,29.874 3.524,29.35 4.16,29.35C4.796,29.35 5.32,29.874 5.32,30.51L5.32,34.63C5.32,35.267 4.796,35.79 4.16,35.79C4.15,35.79 4.14,35.79 4.13,35.79L4.13,35.77Z" style="fill:rgb(89,89,89);fill-rule:nonzero;"/>
            <path d="M4.13,62.37C3.501,62.354 2.994,61.829 3,61.2L3,59.35C3,58.714 3.524,58.19 4.16,58.19C4.796,58.19 5.32,58.714 5.32,59.35L5.32,61.2C5.32,61.203 5.32,61.207 5.32,61.21C5.32,61.847 4.796,62.37 4.16,62.37C4.15,62.37 4.14,62.37 4.13,62.37Z" style="fill:rgb(35,31,32);fill-rule:nonzero;"/>
            <path d="M69.95,26.18L69.94,26.18C69.303,26.18 68.78,25.656 68.78,25.02C68.78,25.013 68.78,25.007 68.78,25L68.78,23.16C68.836,22.561 69.344,22.098 69.945,22.098C70.546,22.098 71.054,22.561 71.11,23.16L71.11,25C71.11,25.007 71.11,25.013 71.11,25.02C71.11,25.656 70.587,26.18 69.95,26.18Z" style="fill:rgb(35,31,32);fill-rule:nonzero;"/>
            <path d="M69.94,55C69.94,55 69.94,55 69.94,55C69.304,55 68.78,54.476 68.78,53.84C68.78,53.837 68.78,53.833 68.78,53.83L68.78,49.73C68.836,49.131 69.344,48.668 69.945,48.668C70.546,48.668 71.054,49.131 71.11,49.73L71.11,53.85C71.099,54.484 70.574,55 69.94,55ZM69.94,45.38C69.304,45.38 68.78,44.856 68.78,44.22L68.78,40.12C68.836,39.521 69.344,39.058 69.945,39.058C70.546,39.058 71.054,39.521 71.11,40.12L71.11,44.24C71.11,44.876 70.586,45.4 69.95,45.4C69.947,45.4 69.943,45.4 69.94,45.4L69.94,45.38ZM69.94,35.77C69.304,35.77 68.78,35.246 68.78,34.61L68.78,30.51C68.836,29.911 69.344,29.448 69.945,29.448C70.546,29.448 71.054,29.911 71.11,30.51L71.11,34.63C71.11,35.266 70.586,35.79 69.95,35.79C69.947,35.79 69.943,35.79 69.94,35.79L69.94,35.77Z" style="fill:rgb(89,89,89);fill-rule:nonzero;"/>
            <path d="M69.94,62.37C69.94,62.37 69.94,62.37 69.94,62.37C69.304,62.37 68.78,61.846 68.78,61.21C68.78,61.207 68.78,61.203 68.78,61.2L68.78,59.35C68.836,58.751 69.344,58.288 69.945,58.288C70.546,58.288 71.054,58.751 71.11,59.35L71.11,61.2C71.11,61.842 70.582,62.37 69.94,62.37Z" style="fill:rgb(35,31,32);fill-rule:nonzero;"/>
            <path d="M37,7.08C36.997,7.08 36.993,7.08 36.99,7.08C36.354,7.08 35.83,6.556 35.83,5.92L35.83,4.06C35.886,3.461 36.394,2.998 36.995,2.998C37.596,2.998 38.104,3.461 38.16,4.06L38.16,5.92C38.16,6.556 37.636,7.08 37,7.08Z" style="fill:rgb(35,31,32);fill-rule:nonzero;"/>
            <path d="M37,74.68C36.997,74.68 36.993,74.68 36.99,74.68C36.354,74.68 35.83,74.156 35.83,73.52L35.83,69.89C35.886,69.291 36.394,68.828 36.995,68.828C37.596,68.828 38.104,69.291 38.16,69.89L38.16,73.52C38.16,74.156 37.636,74.68 37,74.68ZM37,66.23C36.997,66.23 36.993,66.23 36.99,66.23C36.354,66.23 35.83,65.706 35.83,65.07L35.83,61.44C35.886,60.841 36.394,60.378 36.995,60.378C37.596,60.378 38.104,60.841 38.16,61.44L38.16,65.07C38.16,65.706 37.636,66.23 37,66.23ZM37,57.78C36.997,57.78 36.993,57.78 36.99,57.78C36.354,57.78 35.83,57.256 35.83,56.62L35.83,53C35.886,52.401 36.394,51.938 36.995,51.938C37.596,51.938 38.104,52.401 38.16,53L38.16,56.63C38.155,57.263 37.633,57.78 37,57.78ZM37,49.33C36.997,49.33 36.993,49.33 36.99,49.33C36.354,49.33 35.83,48.806 35.83,48.17L35.83,44.54C35.886,43.941 36.394,43.478 36.995,43.478C37.596,43.478 38.104,43.941 38.16,44.54L38.16,48.17C38.16,48.806 37.636,49.33 37,49.33ZM37,40.88C36.997,40.88 36.993,40.88 36.99,40.88C36.354,40.88 35.83,40.356 35.83,39.72L35.83,36.1C35.827,36.064 35.825,36.028 35.825,35.992C35.825,35.35 36.353,34.822 36.995,34.822C37.637,34.822 38.165,35.35 38.165,35.992C38.165,36.028 38.163,36.064 38.16,36.1L38.16,39.72C38.16,40.356 37.636,40.88 37,40.88ZM37,32.43C36.997,32.43 36.993,32.43 36.99,32.43C36.354,32.43 35.83,31.906 35.83,31.27L35.83,27.65C35.827,27.614 35.825,27.578 35.825,27.542C35.825,26.9 36.353,26.372 36.995,26.372C37.637,26.372 38.165,26.9 38.165,27.542C38.165,27.578 38.163,27.614 38.16,27.65L38.16,31.27C38.16,31.906 37.636,32.43 37,32.43ZM37,24L36.99,24C36.354,24 35.83,23.476 35.83,22.84L35.83,19.2C35.827,19.164 35.825,19.128 35.825,19.092C35.825,18.45 36.353,17.922 36.995,17.922C37.637,17.922 38.165,18.45 38.165,19.092C38.165,19.128 38.163,19.164 38.16,19.2L38.16,22.82C38.16,22.827 38.16,22.833 38.16,22.84C38.16,23.476 37.637,24 37,24ZM37,15.55C36.997,15.55 36.993,15.55 36.99,15.55C36.354,15.55 35.83,15.026 35.83,14.39L35.83,10.75C35.827,10.714 35.825,10.678 35.825,10.642C35.825,10 36.353,9.472 36.995,9.472C37.637,9.472 38.165,10 38.165,10.642C38.165,10.678 38.163,10.714 38.16,10.75L38.16,14.37C38.16,15.006 37.636,15.53 37,15.53L37,15.55Z" style="fill:rgb(89,89,89);fill-rule:nonzero;"/>
            <path d="M37,81.36C36.997,81.36 36.993,81.36 36.99,81.36C36.354,81.36 35.83,80.836 35.83,80.2L35.83,78.34C35.886,77.741 36.394,77.278 36.995,77.278C37.596,77.278 38.104,77.741 38.16,78.34L38.16,80.2C38.16,80.836 37.636,81.36 37,81.36Z" style="fill:rgb(35,31,32);fill-rule:nonzero;"/>
            <path d="M68.37,25.19C67.959,25.184 67.579,24.964 67.37,24.61C67.26,24.429 67.202,24.221 67.202,24.009C67.202,23.592 67.427,23.206 67.79,23L69.4,22.07C69.555,21.996 69.725,21.958 69.897,21.958C70.533,21.958 71.057,22.482 71.057,23.118C71.057,23.497 70.871,23.853 70.56,24.07L69,25C68.814,25.126 68.594,25.192 68.37,25.19Z" style="fill:rgb(35,31,32);fill-rule:nonzero;"/>
            <path d="M9.84,59C9.426,59.005 9.041,58.782 8.84,58.42C8.524,57.871 8.713,57.16 9.26,56.84L12.4,55C12.555,54.926 12.725,54.888 12.897,54.888C13.533,54.888 14.057,55.412 14.057,56.048C14.057,56.427 13.871,56.783 13.56,57L10.42,58.81C10.246,58.923 10.047,58.988 9.84,59ZM17.16,54.78C16.749,54.774 16.369,54.554 16.16,54.2C16.058,54.023 16.004,53.823 16.004,53.618C16.004,53.202 16.228,52.816 16.59,52.61L19.72,50.8C19.885,50.714 20.069,50.669 20.255,50.669C20.891,50.669 21.415,51.193 21.415,51.829C21.415,52.22 21.217,52.586 20.89,52.8L17.74,54.6C17.565,54.706 17.364,54.762 17.16,54.76L17.16,54.78ZM24.48,50.55C24.066,50.555 23.681,50.332 23.48,49.97C23.164,49.421 23.353,48.71 23.9,48.39L27,46.56C27.195,46.425 27.426,46.352 27.663,46.352C28.299,46.352 28.823,46.876 28.823,47.512C28.823,47.959 28.564,48.368 28.16,48.56L25.03,50.37C24.862,50.465 24.673,50.52 24.48,50.53L24.48,50.55ZM31.79,46.33C31.379,46.324 30.999,46.104 30.79,45.75C30.688,45.573 30.634,45.373 30.634,45.168C30.634,44.752 30.858,44.366 31.22,44.16L34.35,42.35C34.515,42.264 34.699,42.219 34.885,42.219C35.521,42.219 36.045,42.743 36.045,43.379C36.045,43.77 35.847,44.136 35.52,44.35L32.38,46.16C32.201,46.264 31.997,46.316 31.79,46.31L31.79,46.33ZM39.11,42.11C38.475,42.101 37.957,41.575 37.957,40.94C37.957,40.532 38.171,40.152 38.52,39.94L41.66,38.13C41.855,37.995 42.086,37.922 42.323,37.922C42.959,37.922 43.483,38.446 43.483,39.082C43.483,39.529 43.224,39.938 42.82,40.13L39.69,41.94C39.513,42.04 39.313,42.092 39.11,42.09L39.11,42.11ZM46.42,37.88C46.417,37.88 46.414,37.88 46.41,37.88C45.774,37.88 45.25,37.356 45.25,36.72C45.25,36.302 45.476,35.915 45.84,35.71L49,33.88C49.155,33.806 49.325,33.768 49.497,33.768C50.133,33.768 50.657,34.292 50.657,34.928C50.657,35.307 50.471,35.663 50.16,35.88L47,37.7C46.825,37.806 46.624,37.862 46.42,37.86L46.42,37.88ZM53.74,33.66C53.326,33.654 52.945,33.429 52.74,33.07C52.638,32.894 52.584,32.695 52.584,32.492C52.584,32.077 52.809,31.693 53.17,31.49L56.3,29.68C56.495,29.545 56.726,29.472 56.963,29.472C57.599,29.472 58.123,29.996 58.123,30.632C58.123,31.079 57.864,31.488 57.46,31.68L54.33,33.49C54.15,33.592 53.946,33.643 53.74,33.64L53.74,33.66ZM61.05,29.43C60.637,29.43 60.255,29.209 60.05,28.85C59.733,28.298 59.922,27.584 60.47,27.26L63.61,25.45C63.765,25.376 63.935,25.338 64.107,25.338C64.743,25.338 65.267,25.862 65.267,26.498C65.267,26.877 65.081,27.233 64.77,27.45L61.63,29.26C61.454,29.363 61.253,29.415 61.05,29.41L61.05,29.43Z" style="fill:rgb(89,89,89);fill-rule:nonzero;"/>
            <path d="M4.06,62.33C3.647,62.33 3.265,62.109 3.06,61.75C2.743,61.198 2.932,60.484 3.48,60.16L5.09,59.23C5.285,59.095 5.516,59.022 5.753,59.022C6.389,59.022 6.913,59.546 6.913,60.182C6.913,60.629 6.654,61.038 6.25,61.23L4.64,62.16C4.466,62.27 4.265,62.329 4.06,62.33Z" style="fill:rgb(35,31,32);fill-rule:nonzero;"/>
            <path d="M70,25.42C69.593,25.419 69.193,25.312 68.84,25.11L37,6.74L5.21,25.11C4.807,25.412 4.317,25.575 3.814,25.575C2.535,25.575 1.484,24.523 1.484,23.245C1.484,22.321 2.033,21.48 2.88,21.11L37,1.38L71.13,21.08C71.843,21.498 72.282,22.264 72.282,23.09C72.282,24.351 71.26,25.394 70,25.42Z" style="fill:rgb(236,78,54);fill-rule:nonzero;"/>
            <path d="M37,82.88L2.88,63.18C2.293,62.74 1.946,62.048 1.946,61.315C1.946,60.037 2.998,58.985 4.276,58.985C4.598,58.985 4.916,59.051 5.21,59.18L37,77.52L68.8,59.15C69.094,59.021 69.412,58.955 69.734,58.955C71.012,58.955 72.064,60.007 72.064,61.285C72.064,62.018 71.717,62.71 71.13,63.15L37,82.88Z" style="fill:rgb(236,78,54);fill-rule:nonzero;"/>
            <path d="M70,63.49C69.596,63.49 69.199,63.383 68.85,63.18L2.89,25.11C2.043,24.74 1.494,23.899 1.494,22.975C1.494,21.697 2.545,20.645 3.824,20.645C4.327,20.645 4.817,20.808 5.22,21.11L71.14,59.16C71.858,59.574 72.302,60.342 72.302,61.17C72.302,62.436 71.266,63.48 70,63.49Z" style="fill:rgb(236,78,54);fill-rule:nonzero;"/>
            <circle cx="4.06" cy="23.1" r="4.06" style="fill:rgb(236,78,54);"/>
            <circle cx="37.01" cy="4.06" r="4.06" style="fill:rgb(236,78,54);"/>
            <circle cx="37.01" cy="42.14" r="7.22" style="fill:rgb(236,78,54);"/>
            <circle cx="69.73" cy="23.1" r="4.06" style="fill:rgb(236,78,54);"/>
            <circle cx="69.99" cy="61.16" r="4.06" style="fill:rgb(236,78,54);"/>
            <circle cx="4.06" cy="61.16" r="4.06" style="fill:rgb(236,78,54);"/>
            <circle cx="37.01" cy="80.2" r="4.06" style="fill:rgb(236,78,54);"/>
            <path d="M330.56,73.49C330.569,73.915 330.451,74.333 330.22,74.69C329.988,75.043 329.667,75.33 329.29,75.52C328.901,75.722 328.468,75.825 328.03,75.82L323.76,75.82L323.76,66.82L328.12,66.82C328.514,66.81 328.901,66.929 329.22,67.16C329.526,67.381 329.771,67.677 329.93,68.02C330.293,68.769 330.259,69.651 329.84,70.37C329.607,70.753 329.256,71.051 328.84,71.22C329.335,71.36 329.769,71.663 330.07,72.08C330.379,72.486 330.551,72.98 330.56,73.49ZM324.65,67.56L324.65,70.89L327.76,70.89C328.04,70.894 328.315,70.813 328.55,70.66C328.778,70.498 328.966,70.286 329.1,70.04C329.23,69.786 329.299,69.505 329.3,69.22C329.305,68.932 329.24,68.647 329.11,68.39C328.987,68.148 328.809,67.939 328.59,67.78C328.369,67.631 328.107,67.555 327.84,67.56L324.65,67.56ZM329.65,73.34C329.651,73.045 329.583,72.754 329.45,72.49C329.319,72.236 329.127,72.02 328.89,71.86C328.658,71.7 328.382,71.616 328.1,71.62L324.63,71.62L324.63,75L328,75C328.294,75.002 328.582,74.919 328.83,74.76C329.073,74.599 329.275,74.383 329.42,74.13C329.57,73.892 329.656,73.62 329.67,73.34L329.65,73.34Z" style="fill:white;fill-rule:nonzero;"/>
            <path d="M331.92,66.78L334.92,71.64L337.92,66.78L338.92,66.78L335.42,72.46L335.42,75.82L334.53,75.82L334.53,72.43L331.04,66.78L331.92,66.78Z" style="fill:white;fill-rule:nonzero;"/>
            <path d="M342.62,66.78L345.85,74.71L349.07,66.78L350,66.78L346.26,75.78L345.44,75.78L341.69,66.78L342.62,66.78Z" style="fill:white;fill-rule:nonzero;"/>
            <path d="M357.37,75L357.37,75.79L351.3,75.79L351.3,66.79L357.3,66.79L357.3,67.58L352.23,67.58L352.23,70.84L356.65,70.84L356.65,71.59L352.23,71.59L352.23,75L357.37,75Z" style="fill:white;fill-rule:nonzero;"/>
            <path d="M359.05,75.82L359.05,66.82L362.87,66.82C363.241,66.815 363.607,66.897 363.94,67.06C364.265,67.221 364.554,67.445 364.79,67.72C365.029,67.988 365.218,68.296 365.35,68.63C365.476,68.949 365.544,69.287 365.55,69.63C365.549,70.049 365.464,70.464 365.3,70.85C365.145,71.232 364.905,71.573 364.6,71.85C364.298,72.113 363.933,72.292 363.54,72.37L365.75,75.86L364.75,75.86L362.63,72.52L359.95,72.52L359.95,75.86L359.05,75.82ZM359.94,71.69L362.94,71.69C363.273,71.699 363.601,71.597 363.87,71.4C364.134,71.198 364.344,70.933 364.48,70.63C364.618,70.315 364.69,69.974 364.69,69.63C364.692,69.282 364.61,68.939 364.45,68.63C364.288,68.329 364.059,68.069 363.78,67.87C363.511,67.682 363.188,67.584 362.86,67.59L359.98,67.59L359.94,71.69Z" style="fill:white;fill-rule:nonzero;"/>
            <path d="M373.69,67.57L370.47,67.57L370.47,75.82L369.58,75.82L369.58,67.57L366.36,67.57L366.36,66.78L373.69,66.78L373.69,67.57Z" style="fill:white;fill-rule:nonzero;"/>
            <rect x="375" y="66.82" width="0.9" height="9" style="fill:white;fill-rule:nonzero;"/>
            <path d="M381.83,75.88C381.247,75.884 380.671,75.751 380.15,75.49C379.639,75.248 379.18,74.908 378.8,74.49C378.421,74.055 378.12,73.558 377.91,73.02C377.709,72.483 377.604,71.914 377.6,71.34C377.599,70.746 377.704,70.157 377.91,69.6C378.11,69.063 378.408,68.567 378.79,68.14C379.16,67.723 379.608,67.383 380.11,67.14C380.633,66.897 381.204,66.774 381.78,66.78C382.543,66.748 383.3,66.936 383.96,67.32C384.505,67.672 384.945,68.167 385.23,68.75L384.54,69.21C384.291,68.687 383.886,68.253 383.38,67.97C382.885,67.706 382.331,67.572 381.77,67.58C381.297,67.568 380.828,67.678 380.41,67.9C380.023,68.113 379.682,68.402 379.41,68.75C379.118,69.108 378.898,69.519 378.76,69.96C378.608,70.411 378.53,70.884 378.53,71.36C378.527,71.852 378.616,72.34 378.79,72.8C378.952,73.245 379.196,73.655 379.51,74.01C379.815,74.356 380.185,74.639 380.6,74.84C381.014,75.041 381.47,75.143 381.93,75.14C382.48,75.139 383.02,74.998 383.5,74.73C384.048,74.398 384.526,73.963 384.91,73.45L384.91,74.39C384.172,75.339 383.032,75.89 381.83,75.88ZM384.73,72.06L382.73,72.06L382.73,71.37L385.49,71.37L385.49,75.82L384.74,75.82L384.73,72.06Z" style="fill:white;fill-rule:nonzero;"/>
            <path d="M391,75.88C390.402,75.888 389.81,75.758 389.27,75.5C388.758,75.265 388.301,74.924 387.93,74.5C387.534,74.059 387.219,73.551 387,73C386.801,72.459 386.7,71.887 386.7,71.31C386.695,70.718 386.804,70.131 387.02,69.58C387.228,69.044 387.529,68.55 387.91,68.12C388.294,67.702 388.756,67.362 389.27,67.12C390.349,66.612 391.601,66.612 392.68,67.12C393.187,67.376 393.636,67.734 394,68.17C394.37,68.607 394.661,69.104 394.86,69.64C395.487,71.299 395.14,73.176 393.96,74.5C393.583,74.922 393.123,75.262 392.61,75.5C392.108,75.743 391.558,75.872 391,75.88ZM387.65,71.3C387.649,71.783 387.73,72.264 387.89,72.72C388.044,73.162 388.278,73.573 388.58,73.93C388.872,74.279 389.233,74.565 389.64,74.77C390.506,75.197 391.524,75.197 392.39,74.77C392.798,74.558 393.159,74.266 393.45,73.91C393.741,73.544 393.967,73.132 394.12,72.69C394.271,72.249 394.348,71.786 394.35,71.32C394.348,70.839 394.264,70.362 394.1,69.91C393.946,69.468 393.712,69.057 393.41,68.7C393.119,68.35 392.758,68.064 392.35,67.86C391.932,67.65 391.468,67.543 391,67.55C390.521,67.545 390.048,67.655 389.62,67.87C389.208,68.076 388.847,68.37 388.56,68.73C388.266,69.092 388.036,69.501 387.88,69.94C387.718,70.376 387.627,70.835 387.61,71.3L387.65,71.3Z" style="fill:white;fill-rule:nonzero;"/>
            <path d="M403.75,75.88C403.167,75.884 402.591,75.751 402.07,75.49C401.559,75.248 401.1,74.908 400.72,74.49C400.341,74.057 400.043,73.559 399.84,73.02C399.631,72.484 399.523,71.915 399.52,71.34C399.518,70.745 399.626,70.155 399.84,69.6C400.032,69.061 400.328,68.565 400.71,68.14C401.08,67.723 401.528,67.383 402.03,67.14C402.553,66.897 403.124,66.774 403.7,66.78C404.463,66.748 405.22,66.936 405.88,67.32C406.425,67.672 406.865,68.167 407.15,68.75L406.46,69.21C406.211,68.687 405.806,68.253 405.3,67.97C404.805,67.706 404.251,67.572 403.69,67.58C403.217,67.57 402.749,67.68 402.33,67.9C401.943,68.113 401.602,68.402 401.33,68.75C401.045,69.113 400.825,69.522 400.68,69.96C400.531,70.412 400.456,70.884 400.46,71.36C400.454,71.851 400.539,72.339 400.71,72.8C400.861,73.241 401.095,73.648 401.4,74C401.699,74.348 402.067,74.631 402.48,74.83C402.894,75.031 403.35,75.133 403.81,75.13C404.36,75.13 404.901,74.989 405.38,74.72C405.928,74.388 406.406,73.953 406.79,73.44L406.79,74.38C406.064,75.323 404.94,75.877 403.75,75.88ZM406.65,72.06L404.65,72.06L404.65,71.37L407.41,71.37L407.41,75.82L406.66,75.82L406.65,72.06Z" style="fill:white;fill-rule:nonzero;"/>
            <path d="M412,66.78L412.75,66.78L416.51,75.78L415.56,75.78L414.47,73L410.34,73L409.21,75.83L408.26,75.83L412,66.78ZM414.15,72.29L412.37,67.82L410.58,72.29L414.15,72.29Z" style="fill:white;fill-rule:nonzero;"/>
            <path d="M425.85,75.82L425.85,68.46L422.58,74.18L422,74.18L418.72,68.46L418.72,75.82L417.82,75.82L417.82,66.82L418.74,66.82L422.29,73L425.84,66.81L426.74,66.81L426.74,75.81L425.85,75.82Z" style="fill:white;fill-rule:nonzero;"/>
            <path d="M435.08,75L435.08,75.79L429,75.79L429,66.79L435,66.79L435,67.58L429.9,67.58L429.9,70.84L434.32,70.84L434.32,71.59L429.9,71.59L429.9,75L435.08,75Z" style="fill:white;fill-rule:nonzero;"/>
            <path d="M442,68.47C441.864,68.325 441.713,68.194 441.55,68.08C441.369,67.964 441.178,67.864 440.98,67.78C440.758,67.697 440.531,67.63 440.3,67.58C440.047,67.528 439.789,67.501 439.53,67.5C438.915,67.453 438.302,67.615 437.79,67.96C437.422,68.256 437.214,68.708 437.23,69.18C437.213,69.482 437.305,69.78 437.49,70.02C437.717,70.258 438.004,70.43 438.32,70.52C438.786,70.677 439.26,70.807 439.74,70.91C440.308,71.027 440.866,71.188 441.41,71.39C441.831,71.543 442.204,71.806 442.49,72.15C442.762,72.523 442.896,72.979 442.87,73.44C442.88,73.814 442.798,74.185 442.63,74.52C442.476,74.827 442.245,75.088 441.96,75.28C441.658,75.494 441.319,75.65 440.96,75.74C440.527,75.835 440.084,75.882 439.64,75.88C439.189,75.881 438.739,75.831 438.3,75.73C437.88,75.639 437.473,75.495 437.09,75.3C436.7,75.109 436.34,74.864 436.02,74.57L436.46,73.85C436.639,74.024 436.833,74.181 437.04,74.32C437.279,74.473 437.53,74.607 437.79,74.72C438.078,74.84 438.375,74.934 438.68,75C439.01,75.061 439.345,75.091 439.68,75.09C440.269,75.122 440.855,74.987 441.37,74.7C441.767,74.448 441.996,73.999 441.97,73.53C441.985,73.203 441.878,72.882 441.67,72.63C441.412,72.375 441.096,72.187 440.75,72.08C440.343,71.94 439.843,71.8 439.25,71.66C438.707,71.547 438.175,71.386 437.66,71.18C437.268,71.04 436.922,70.794 436.66,70.47C436.433,70.127 436.321,69.721 436.34,69.31C436.326,68.806 436.469,68.309 436.75,67.89C437.042,67.497 437.436,67.193 437.89,67.01C438.422,66.804 438.99,66.706 439.56,66.72C439.933,66.717 440.306,66.757 440.67,66.84C441.018,66.909 441.355,67.027 441.67,67.19C441.966,67.345 442.242,67.536 442.49,67.76L442,68.47Z" style="fill:white;fill-rule:nonzero;"/>
        </g>
    </g>
</svg>
